<mxfile host="app.diagrams.net" modified="2024-02-02T12:46:01.335Z" agent="Mozilla/5.0 (Windows NT 10.0; Win64; x64) AppleWebKit/537.36 (KHTML, like Gecko) Chrome/120.0.0.0 Safari/537.36" etag="j75le-f3gtztRtpxSIwO" version="22.1.21" type="github">
  <diagram id="R2lEEEUBdFMjLlhIrx00" name="Page-1">
    <mxGraphModel dx="1050" dy="522" grid="1" gridSize="10" guides="1" tooltips="1" connect="1" arrows="1" fold="1" page="1" pageScale="1" pageWidth="850" pageHeight="1100" math="0" shadow="0" extFonts="Permanent Marker^https://fonts.googleapis.com/css?family=Permanent+Marker">
      <root>
        <mxCell id="0" />
        <mxCell id="1" parent="0" />
        <mxCell id="gEOdgFD1-VOu7brd81Nd-1" value="Student" style="whiteSpace=wrap;html=1;align=center;" vertex="1" parent="1">
          <mxGeometry x="120" y="560" width="66" height="38" as="geometry" />
        </mxCell>
        <mxCell id="gEOdgFD1-VOu7brd81Nd-2" value="Password&lt;br&gt;" style="ellipse;whiteSpace=wrap;html=1;align=center;" vertex="1" parent="1">
          <mxGeometry x="180" y="500" width="66" height="38" as="geometry" />
        </mxCell>
        <mxCell id="gEOdgFD1-VOu7brd81Nd-3" value="" style="endArrow=none;html=1;rounded=0;exitX=0.5;exitY=1;exitDx=0;exitDy=0;" edge="1" parent="1" source="gEOdgFD1-VOu7brd81Nd-2" target="gEOdgFD1-VOu7brd81Nd-1">
          <mxGeometry relative="1" as="geometry">
            <mxPoint x="340" y="670" as="sourcePoint" />
            <mxPoint x="500" y="670" as="targetPoint" />
          </mxGeometry>
        </mxCell>
        <mxCell id="gEOdgFD1-VOu7brd81Nd-8" value="Scholar ID&lt;br&gt;" style="ellipse;whiteSpace=wrap;html=1;align=center;fontStyle=4;" vertex="1" parent="1">
          <mxGeometry x="70" y="500" width="66" height="38" as="geometry" />
        </mxCell>
        <mxCell id="gEOdgFD1-VOu7brd81Nd-9" value="Name" style="ellipse;whiteSpace=wrap;html=1;align=center;" vertex="1" parent="1">
          <mxGeometry x="70" y="620" width="66" height="38" as="geometry" />
        </mxCell>
        <mxCell id="gEOdgFD1-VOu7brd81Nd-10" value="Owns" style="shape=rhombus;perimeter=rhombusPerimeter;whiteSpace=wrap;html=1;align=center;" vertex="1" parent="1">
          <mxGeometry x="340" y="500" width="86" height="58" as="geometry" />
        </mxCell>
        <mxCell id="gEOdgFD1-VOu7brd81Nd-11" value="Cycles" style="whiteSpace=wrap;html=1;align=center;" vertex="1" parent="1">
          <mxGeometry x="600" y="560" width="66" height="38" as="geometry" />
        </mxCell>
        <mxCell id="gEOdgFD1-VOu7brd81Nd-12" value="Issued&lt;br&gt;" style="shape=rhombus;perimeter=rhombusPerimeter;whiteSpace=wrap;html=1;align=center;" vertex="1" parent="1">
          <mxGeometry x="340" y="610" width="86" height="58" as="geometry" />
        </mxCell>
        <mxCell id="gEOdgFD1-VOu7brd81Nd-13" value="Cycle ID" style="ellipse;whiteSpace=wrap;html=1;align=center;fontStyle=4;" vertex="1" parent="1">
          <mxGeometry x="534" y="500" width="66" height="38" as="geometry" />
        </mxCell>
        <mxCell id="gEOdgFD1-VOu7brd81Nd-14" value="State" style="ellipse;whiteSpace=wrap;html=1;align=center;" vertex="1" parent="1">
          <mxGeometry x="650" y="500" width="66" height="38" as="geometry" />
        </mxCell>
        <mxCell id="gEOdgFD1-VOu7brd81Nd-15" value="Coordinates&lt;br&gt;" style="ellipse;whiteSpace=wrap;html=1;align=center;" vertex="1" parent="1">
          <mxGeometry x="680" y="560" width="100" height="40" as="geometry" />
        </mxCell>
        <mxCell id="gEOdgFD1-VOu7brd81Nd-16" value="Charges Per Hour&lt;br&gt;" style="ellipse;whiteSpace=wrap;html=1;align=center;" vertex="1" parent="1">
          <mxGeometry x="680" y="628" width="110" height="40" as="geometry" />
        </mxCell>
        <mxCell id="gEOdgFD1-VOu7brd81Nd-17" value="Cycle Info" style="ellipse;whiteSpace=wrap;html=1;align=center;" vertex="1" parent="1">
          <mxGeometry x="600" y="630" width="66" height="38" as="geometry" />
        </mxCell>
        <mxCell id="gEOdgFD1-VOu7brd81Nd-18" style="edgeStyle=orthogonalEdgeStyle;rounded=0;orthogonalLoop=1;jettySize=auto;html=1;exitX=0.5;exitY=1;exitDx=0;exitDy=0;" edge="1" parent="1" source="gEOdgFD1-VOu7brd81Nd-17" target="gEOdgFD1-VOu7brd81Nd-17">
          <mxGeometry relative="1" as="geometry" />
        </mxCell>
        <mxCell id="gEOdgFD1-VOu7brd81Nd-20" value="" style="endArrow=none;html=1;rounded=0;" edge="1" parent="1" source="gEOdgFD1-VOu7brd81Nd-8" target="gEOdgFD1-VOu7brd81Nd-1">
          <mxGeometry relative="1" as="geometry">
            <mxPoint x="340" y="670" as="sourcePoint" />
            <mxPoint x="500" y="670" as="targetPoint" />
          </mxGeometry>
        </mxCell>
        <mxCell id="gEOdgFD1-VOu7brd81Nd-21" value="" style="endArrow=none;html=1;rounded=0;" edge="1" parent="1" source="gEOdgFD1-VOu7brd81Nd-1" target="gEOdgFD1-VOu7brd81Nd-9">
          <mxGeometry relative="1" as="geometry">
            <mxPoint x="340" y="670" as="sourcePoint" />
            <mxPoint x="500" y="670" as="targetPoint" />
          </mxGeometry>
        </mxCell>
        <mxCell id="gEOdgFD1-VOu7brd81Nd-23" value="Issue Time" style="ellipse;whiteSpace=wrap;html=1;align=center;" vertex="1" parent="1">
          <mxGeometry x="260" y="660" width="66" height="38" as="geometry" />
        </mxCell>
        <mxCell id="gEOdgFD1-VOu7brd81Nd-24" value="Return Time&lt;br&gt;" style="ellipse;whiteSpace=wrap;html=1;align=center;" vertex="1" parent="1">
          <mxGeometry x="350" y="690" width="66" height="38" as="geometry" />
        </mxCell>
        <mxCell id="gEOdgFD1-VOu7brd81Nd-26" value="Cost&lt;br&gt;" style="ellipse;whiteSpace=wrap;html=1;align=center;" vertex="1" parent="1">
          <mxGeometry x="440" y="660" width="66" height="38" as="geometry" />
        </mxCell>
        <mxCell id="gEOdgFD1-VOu7brd81Nd-27" value="" style="endArrow=none;html=1;rounded=0;" edge="1" parent="1" source="gEOdgFD1-VOu7brd81Nd-23" target="gEOdgFD1-VOu7brd81Nd-12">
          <mxGeometry relative="1" as="geometry">
            <mxPoint x="340" y="670" as="sourcePoint" />
            <mxPoint x="500" y="670" as="targetPoint" />
          </mxGeometry>
        </mxCell>
        <mxCell id="gEOdgFD1-VOu7brd81Nd-28" value="" style="endArrow=none;html=1;rounded=0;" edge="1" parent="1" source="gEOdgFD1-VOu7brd81Nd-24" target="gEOdgFD1-VOu7brd81Nd-12">
          <mxGeometry relative="1" as="geometry">
            <mxPoint x="340" y="670" as="sourcePoint" />
            <mxPoint x="500" y="670" as="targetPoint" />
          </mxGeometry>
        </mxCell>
        <mxCell id="gEOdgFD1-VOu7brd81Nd-29" value="" style="endArrow=none;html=1;rounded=0;" edge="1" parent="1" source="gEOdgFD1-VOu7brd81Nd-12" target="gEOdgFD1-VOu7brd81Nd-26">
          <mxGeometry relative="1" as="geometry">
            <mxPoint x="340" y="670" as="sourcePoint" />
            <mxPoint x="500" y="670" as="targetPoint" />
          </mxGeometry>
        </mxCell>
        <mxCell id="gEOdgFD1-VOu7brd81Nd-30" value="" style="endArrow=none;html=1;rounded=0;exitX=0.5;exitY=1;exitDx=0;exitDy=0;" edge="1" parent="1" source="gEOdgFD1-VOu7brd81Nd-11" target="gEOdgFD1-VOu7brd81Nd-17">
          <mxGeometry relative="1" as="geometry">
            <mxPoint x="340" y="670" as="sourcePoint" />
            <mxPoint x="500" y="670" as="targetPoint" />
          </mxGeometry>
        </mxCell>
        <mxCell id="gEOdgFD1-VOu7brd81Nd-31" value="" style="endArrow=none;html=1;rounded=0;exitX=0.75;exitY=1;exitDx=0;exitDy=0;" edge="1" parent="1" source="gEOdgFD1-VOu7brd81Nd-11" target="gEOdgFD1-VOu7brd81Nd-16">
          <mxGeometry relative="1" as="geometry">
            <mxPoint x="340" y="670" as="sourcePoint" />
            <mxPoint x="500" y="670" as="targetPoint" />
          </mxGeometry>
        </mxCell>
        <mxCell id="gEOdgFD1-VOu7brd81Nd-32" value="" style="endArrow=none;html=1;rounded=0;" edge="1" parent="1" source="gEOdgFD1-VOu7brd81Nd-11" target="gEOdgFD1-VOu7brd81Nd-15">
          <mxGeometry relative="1" as="geometry">
            <mxPoint x="340" y="670" as="sourcePoint" />
            <mxPoint x="500" y="670" as="targetPoint" />
          </mxGeometry>
        </mxCell>
        <mxCell id="gEOdgFD1-VOu7brd81Nd-33" value="" style="endArrow=none;html=1;rounded=0;" edge="1" parent="1" source="gEOdgFD1-VOu7brd81Nd-13" target="gEOdgFD1-VOu7brd81Nd-11">
          <mxGeometry relative="1" as="geometry">
            <mxPoint x="340" y="670" as="sourcePoint" />
            <mxPoint x="500" y="670" as="targetPoint" />
          </mxGeometry>
        </mxCell>
        <mxCell id="gEOdgFD1-VOu7brd81Nd-34" value="" style="endArrow=none;html=1;rounded=0;exitX=0.5;exitY=1;exitDx=0;exitDy=0;" edge="1" parent="1" source="gEOdgFD1-VOu7brd81Nd-14" target="gEOdgFD1-VOu7brd81Nd-11">
          <mxGeometry relative="1" as="geometry">
            <mxPoint x="340" y="670" as="sourcePoint" />
            <mxPoint x="500" y="670" as="targetPoint" />
          </mxGeometry>
        </mxCell>
        <mxCell id="gEOdgFD1-VOu7brd81Nd-39" value="" style="endArrow=none;html=1;rounded=0;entryX=0;entryY=0.5;entryDx=0;entryDy=0;" edge="1" parent="1" source="gEOdgFD1-VOu7brd81Nd-1" target="gEOdgFD1-VOu7brd81Nd-10">
          <mxGeometry relative="1" as="geometry">
            <mxPoint x="340" y="670" as="sourcePoint" />
            <mxPoint x="500" y="670" as="targetPoint" />
            <Array as="points">
              <mxPoint x="310" y="580" />
              <mxPoint x="310" y="560" />
              <mxPoint x="310" y="530" />
            </Array>
          </mxGeometry>
        </mxCell>
        <mxCell id="gEOdgFD1-VOu7brd81Nd-40" value="1" style="resizable=0;html=1;whiteSpace=wrap;align=right;verticalAlign=bottom;" connectable="0" vertex="1" parent="gEOdgFD1-VOu7brd81Nd-39">
          <mxGeometry x="1" relative="1" as="geometry" />
        </mxCell>
        <mxCell id="gEOdgFD1-VOu7brd81Nd-43" value="" style="shape=link;html=1;rounded=0;entryX=1;entryY=0.5;entryDx=0;entryDy=0;exitX=0;exitY=0.5;exitDx=0;exitDy=0;" edge="1" parent="1" source="gEOdgFD1-VOu7brd81Nd-11" target="gEOdgFD1-VOu7brd81Nd-10">
          <mxGeometry relative="1" as="geometry">
            <mxPoint x="340" y="670" as="sourcePoint" />
            <mxPoint x="500" y="670" as="targetPoint" />
            <Array as="points">
              <mxPoint x="510" y="580" />
              <mxPoint x="510" y="530" />
            </Array>
          </mxGeometry>
        </mxCell>
        <mxCell id="gEOdgFD1-VOu7brd81Nd-44" value="1" style="resizable=0;html=1;whiteSpace=wrap;align=right;verticalAlign=bottom;" connectable="0" vertex="1" parent="gEOdgFD1-VOu7brd81Nd-43">
          <mxGeometry x="1" relative="1" as="geometry">
            <mxPoint x="10" as="offset" />
          </mxGeometry>
        </mxCell>
        <mxCell id="gEOdgFD1-VOu7brd81Nd-45" value="" style="endArrow=none;html=1;rounded=0;entryX=0;entryY=0.5;entryDx=0;entryDy=0;" edge="1" parent="1" source="gEOdgFD1-VOu7brd81Nd-1" target="gEOdgFD1-VOu7brd81Nd-12">
          <mxGeometry relative="1" as="geometry">
            <mxPoint x="340" y="670" as="sourcePoint" />
            <mxPoint x="500" y="670" as="targetPoint" />
            <Array as="points">
              <mxPoint x="153" y="639" />
            </Array>
          </mxGeometry>
        </mxCell>
        <mxCell id="gEOdgFD1-VOu7brd81Nd-46" value="1" style="resizable=0;html=1;whiteSpace=wrap;align=right;verticalAlign=bottom;" connectable="0" vertex="1" parent="gEOdgFD1-VOu7brd81Nd-45">
          <mxGeometry x="1" relative="1" as="geometry" />
        </mxCell>
        <mxCell id="gEOdgFD1-VOu7brd81Nd-47" value="" style="endArrow=none;html=1;rounded=0;exitX=0.25;exitY=1;exitDx=0;exitDy=0;entryX=1;entryY=0.5;entryDx=0;entryDy=0;" edge="1" parent="1" source="gEOdgFD1-VOu7brd81Nd-11" target="gEOdgFD1-VOu7brd81Nd-12">
          <mxGeometry relative="1" as="geometry">
            <mxPoint x="340" y="670" as="sourcePoint" />
            <mxPoint x="500" y="670" as="targetPoint" />
            <Array as="points">
              <mxPoint x="540" y="600" />
              <mxPoint x="540" y="640" />
            </Array>
          </mxGeometry>
        </mxCell>
        <mxCell id="gEOdgFD1-VOu7brd81Nd-48" value="1" style="resizable=0;html=1;whiteSpace=wrap;align=right;verticalAlign=bottom;" connectable="0" vertex="1" parent="gEOdgFD1-VOu7brd81Nd-47">
          <mxGeometry x="1" relative="1" as="geometry" />
        </mxCell>
      </root>
    </mxGraphModel>
  </diagram>
</mxfile>
